HIERARCHY
ROOT Hips
{
	OFFSET 0.00000 0.00000 0.00000
	CHANNELS 6 Xposition Yposition Zposition Yrotation Zrotation Xrotation 
	JOINT Lumbar
	{
		OFFSET 0 0 0
		CHANNELS 3 Zrotation Xrotation Yrotation
		JOINT Neck
		{
			OFFSET 0.00 0.2701 0.00
			CHANNELS 3 Zrotation Xrotation Yrotation
			End Site
			{
				OFFSET 0.00 0.1379 0.00
			}
		}
		JOINT RightShoulder
		{
			OFFSET 0.0119 0.2289 0.1181
			CHANNELS 3 Zrotation Xrotation Yrotation
			JOINT RightElbow
			{
				OFFSET 0.00 -0.1475 0.00
				CHANNELS 2 Zrotation Yrotation
				JOINT RightWrist
				{
					OFFSET 0.00 -0.1605 0.00
					CHANNELS 2 Zrotation Xrotation
					End Site
					{
						OFFSET 0.0040 -0.1068 0.0006
					}
				}
			}
		}
		JOINT LeftShoulder
		{
			OFFSET 0.0119 0.2289 -0.1181
			CHANNELS 3 Zrotation Xrotation Yrotation
			JOINT LeftElbow
			{
				OFFSET 0.00 -0.1475 0.00
				CHANNELS 2 Zrotation Yrotation
				JOINT LeftWrist
				{
					OFFSET 0.00 -0.1605 0.00
					CHANNELS 2 Zrotation Xrotation
					End Site
					{
						OFFSET 0.0040 -0.1068 -0.0006
					}
				}
			}
		}
	}
	JOINT RightHip
	{
		OFFSET 0.0316 -0.0424 0.0458
		CHANNELS 3 Zrotation Xrotation Yrotation
		JOINT RightKnee
		{
			OFFSET 0.00 -0.2438 0.00
			CHANNELS 1 Zrotation
			JOINT RightAnkle
			{
				OFFSET 0.00 -0.2449 0.00
				CHANNELS 3 Zrotation Xrotation Yrotation
				End Site
				{
					OFFSET 0.1237 -0.0542 0.0051
				}
			}
		}
	}
	JOINT LeftHip
	{
		OFFSET 0.0316 -0.0424 -0.0458
		CHANNELS 3 Zrotation Xrotation Yrotation
		JOINT LeftKnee
		{
			OFFSET 0.00 -0.2438 0.00
			CHANNELS 1 Zrotation
			JOINT LeftAnkle
			{
				OFFSET 0.00 -0.2449 0.00
				CHANNELS 3 Zrotation Xrotation Yrotation
				End Site
				{
					OFFSET 0.1237 -0.0542 -0.0051
				}
			}
		}
	}
}
MOTION
Frames: 20
Frame Time: 0.02
-0.56281 0.56963 -0.01939 547.64194 0 0.13915 10.84549 -1.99064 -10.931 -12.5272 4.96908 -6.03846 -8.64501 -17.04858 -30.32617 128.80493 59.20866 -17.58537 2.01167 19.61025 -6.15496 -51.93147 64.3946 -96.55386 26.06818 0.70188 6.1653 4.87768 5.94443 -63.14593 1.58704 -0.11973 4.76463 10.7029 -7.85886 12.33608 -15.77868 5.406 5.53153 12.13719
-0.56917 0.5708 -0.01703 549.45518 0 -0.52341 10.41637 -1.48651 -11.40661 -12.69759 5.28927 -6.05904 -8.54704 -17.16142 -30.47928 128.79786 58.84001 -17.59319 2.1517 20.19728 -6.40044 -51.85827 64.0675 -95.95786 25.40268 0.75749 8.18601 5.00592 4.97933 -63.32292 1.80009 -0.65267 3.08261 9.94934 -7.60587 10.62131 -15.64795 5.6937 5.64072 12.06593
-0.57499 0.57195 -0.0147 551.58161 0 -1.29747 9.91461 -0.90043 -11.95815 -12.8028 5.55757 -6.11856 -8.64069 -17.17179 -30.65709 128.70457 58.35859 -17.48281 2.37179 20.67193 -6.71596 -51.75261 63.5278 -95.15854 24.3833 0.81797 10.02389 5.24253 4.16071 -62.38956 2.27831 -1.43972 0.59245 9.2857 -7.24242 8.61693 -15.62035 5.93452 5.74272 12.01078
-0.58104 0.57309 -0.01236 553.5671 0 -2.01155 9.44501 -0.35817 -12.46089 -12.93385 5.83902 -6.15973 -8.64779 -17.22168 -30.81952 128.65005 57.96107 -17.41386 2.55352 21.17573 -6.98681 -51.66446 63.10873 -94.46166 23.51691 0.87365 11.91927 5.42852 3.33528 -61.8943 2.61745 -2.0945 -1.51243 8.58863 -6.93391 6.74831 -15.55891 6.20061 5.85315 11.94902
-0.58713 0.57432 -0.01 555.55009 0 -2.77195 8.97126 0.21715 -13.02345 -13.0727 6.16841 -6.20453 -8.659 -17.30467 -30.99702 128.59804 57.43065 -17.39905 2.74235 21.76646 -7.31075 -51.56443 62.59808 -93.71679 22.66934 0.94006 13.93572 5.62396 2.24834 -61.67535 3.04316 -2.83454 -3.71591 7.86012 -6.59968 4.86012 -15.43537 6.44768 5.94178 11.88384
-0.59303 0.57534 -0.00769 557.61175 0 -3.45838 8.49234 0.74053 -13.47901 -13.18383 6.38236 -6.25088 -8.70375 -17.29141 -31.14853 128.52006 57.1505 -17.24251 2.93394 22.15226 -7.53927 -51.48165 62.22419 -93.02738 21.70643 0.98508 15.65019 5.82221 1.74986 -60.61977 3.34988 -3.45231 -5.88868 7.21811 -6.29585 2.94384 -15.46796 6.72406 6.07366 11.82946
-0.59855 0.57581 -0.00556 559.8098 0 -3.9287 8.0117 1.10658 -13.62816 -13.22392 6.31185 -6.28985 -8.8063 -17.05791 -31.23957 128.3908 57.56416 -16.72443 3.13717 21.99186 -7.51052 -51.45277 62.27652 -92.52256 20.48344 0.97294 16.59154 6.02407 2.77081 -57.51507 3.24554 -3.66296 -7.88313 6.79708 -6.09196 1.03168 -15.91133 7.09337 6.33203 11.80416
-0.60391 0.57605 -0.00348 562.07665 0 -4.3169 7.53071 1.41566 -13.66577 -13.24152 6.12256 -6.32942 -8.93301 -16.72688 -31.3009 128.23823 58.23816 -16.06792 3.33619 21.63157 -7.3794 -51.44268 62.47291 -92.08582 19.16474 0.93849 17.2303 6.22024 4.39002 -53.61021 3.01472 -3.74015 -9.79612 6.459 -5.92497 -0.9001 -16.50798 7.49404 6.63311 11.78822
-0.60935 0.57638 -0.00136 564.314 0 -4.73196 7.05389 1.74615 -13.7496 -13.27708 5.97331 -6.36983 -9.03996 -16.42713 -31.36514 128.09683 58.80692 -15.47313 3.52259 21.36821 -7.28038 -51.42513 62.60431 -91.62879 17.90839 0.91241 17.99591 6.40465 5.78442 -50.07779 2.85127 -3.88223 -11.67802 6.08065 -5.74933 -2.82989 -17.03292 7.88036 6.91142 11.76659
-0.61476 0.57678 0.0007 566.55413 0 -5.1958 6.55605 2.09865 -13.85486 -13.27687 5.88147 -6.40643 -9.19068 -16.17968 -31.4751 127.9506 59.31254 -14.87681 3.77443 21.07385 -7.24482 -51.40196 62.72695 -91.11432 16.55475 0.89436 18.80187 6.65506 6.99477 -46.46516 2.65328 -4.01919 -13.88163 5.71748 -5.53649 -4.74162 -17.57185 8.2654 7.20425 11.75348
-0.6202 0.57698 0.00288 568.80164 0 -5.53628 6.1047 2.3905 -13.8881 -13.34754 5.64209 -6.45119 -9.25358 -15.80047 -31.48218 127.80923 60.01812 -14.25544 3.88622 20.79969 -7.05165 -51.39527 62.90413 -90.745 15.39212 0.85373 19.45243 6.76319 8.71658 -42.84938 2.49649 -4.12718 -15.37804 5.33973 -5.41005 -6.69053 -18.11438 8.66119 7.4763 11.72228
-0.62572 0.57665 0.00536 571.04394 0 -5.56247 5.76733 2.53011 -13.74881 -13.6132 5.02824 -6.51332 -9.06536 -15.09029 -31.21519 127.69389 61.16657 -13.57221 3.62737 20.61705 -6.44988 -51.43063 63.20294 -90.70314 14.7269 0.76059 19.76275 6.49839 11.80726 -39.38424 2.45721 -4.22655 -15.0023 4.91424 -5.52387 -8.74578 -18.64997 9.07972 7.68492 11.65736
-0.6313 0.57611 0.00799 573.2918 0 -5.46602 5.48021 2.61015 -13.54093 -13.95266 4.26975 -6.58453 -8.7872 -14.2498 -30.84522 127.58325 62.51492 -12.87384 3.22494 20.46471 -5.69249 -51.48191 63.55153 -90.81616 14.26845 0.64472 19.9246 6.0879 15.37171 -35.95875 2.46622 -4.29387 -13.90507 4.46874 -5.72107 -10.83388 -19.18006 9.50845 7.86883 11.56929
-0.63689 0.57567 0.01057 575.54068 0 -5.42052 5.17953 2.71592 -13.36438 -14.26258 3.57486 -6.65446 -8.5513 -13.46344 -30.52033 127.46652 63.80402 -12.20069 2.8774 20.30766 -5.00487 -51.52526 63.87423 -90.89704 13.75291 0.53624 20.14637 5.72966 18.65151 -32.5411 2.47119 -4.34779 -13.09055 4.0231 -5.8747 -12.90096 -19.69798 9.93179 8.06313 11.48098
-0.64234 0.57522 0.01304 577.77531 0 -5.39075 4.83818 2.82464 -13.18231 -14.5541 2.88382 -6.71176 -8.31154 -12.69468 -30.20111 127.36613 64.97461 -11.4462 2.57173 20.10512 -4.31741 -51.57201 64.21559 -90.82053 13.08039 0.43908 20.39193 5.42477 22.24653 -28.97417 2.40151 -4.51091 -12.45267 3.61789 -6.05703 -14.99801 -20.28115 10.35787 8.2687 11.44289
-0.64809 0.57475 0.01579 580.04234 0 -5.30226 4.5953 2.91478 -12.99813 -14.90263 2.15319 -6.79834 -8.05687 -11.86012 -29.84668 127.23251 66.42875 -10.85814 2.14705 20.00737 -3.59443 -51.61539 64.52811 -91.10547 12.78238 0.31361 20.55345 4.98108 25.2878 -25.75254 2.49389 -4.44614 -11.29128 3.12453 -6.19449 -17.03588 -20.72775 10.78216 8.43655 11.28897
-0.65458 0.57426 0.01927 582.37648 0 -5.06408 4.59656 2.96022 -12.81474 -15.38262 1.34015 -6.95579 -7.79318 -10.87358 -29.41463 127.012 68.67772 -10.74572 1.41 20.19091 -2.80944 -51.64407 64.74697 -92.36946 13.49298 0.11242 20.54761 4.13094 26.69504 -23.35618 3.07907 -3.71356 -8.73419 2.37652 -6.22542 -18.93754 -20.77553 11.18175 8.57312 10.87004
-0.66138 0.57376 0.02303 584.74634 0 -4.77497 4.69795 2.99091 -12.63413 -15.91854 0.49535 -7.14342 -7.51558 -9.82742 -28.95205 126.75728 71.19139 -10.80054 0.56211 20.47996 -1.99602 -51.66893 64.93414 -93.98718 14.56865 -0.11573 20.45818 3.15724 27.52234 -21.33131 3.81636 -2.76223 -5.70011 1.5436 -6.20101 -20.77125 -20.69016 11.58155 8.66001 10.32706
-0.66809 0.57327 0.02668 587.11354 0 -4.52073 4.7638 3.03364 -12.45932 -16.43476 -0.32982 -7.3228 -7.23757 -8.80896 -28.50703 126.51386 73.54413 -10.77036 -0.22323 20.72223 -1.1961 -51.6965 65.13705 -95.43136 15.46197 -0.32947 20.39041 2.27861 28.6065 -19.21946 4.44621 -1.94189 -2.96654 0.75907 -6.17709 -22.61352 -20.67934 11.99336 8.72545 9.80736
-0.67459 0.57274 0.03025 589.42468 0 -4.21155 4.78986 3.05111 -12.25177 -16.93136 -1.18565 -7.48108 -6.98481 -7.77839 -28.04212 126.28684 76.08011 -10.77418 -1.06684 20.96069 -0.38387 -51.72076 65.33851 -96.93844 16.43409 -0.55337 20.38773 1.23024 29.74091 -16.76676 5.23633 -0.98631 0.14982 -0.06958 -6.26054 -24.55343 -20.6068 12.3574 8.97541 9.42267
